<svg width="513" height="562" viewBox="0 0 513 562" fill="none" xmlns="http://www.w3.org/2000/svg">
    <path d="M256.432 126.221L25 149.806L119.342 362.075L256.432 126.221Z" fill="#C0C0C0"/>
    <path d="M25 149.806L256.432 126.221V25L25 149.806Z" fill="#3A3A3A"/>
    <path d="M256.432 126.221L487.864 149.806L256.432 25V126.221Z" fill="#171717"/>
    <path d="M25 149.806V412.194L119.342 362.075L25 149.806Z" fill="#323232"/>
    <path d="M25 412.194L256.432 537L119.342 362.075L25 412.194Z" fill="#282828"/>
    <path d="M256.432 537L487.864 412.194L393.522 362.075L256.432 537Z" fill="black"/>
    <path d="M487.864 412.194V149.806L393.522 362.075L487.864 412.194Z" fill="#101010"/>
    <path d="M393.522 362.075H119.342L256.432 537L393.522 362.075Z" fill="#1B1B1B"/>
    <path d="M393.522 362.075L256.432 126.221L119.342 362.075H393.522Z" fill="#2A2A2A"/>
    <path d="M487.864 149.806L256.432 126.221L393.522 362.075L487.864 149.806Z" fill="#1E1E1E"/>
    <path d="M12.5015 149.61C12.5005 149.675 12.5 149.741 12.5 149.806V149.825V412.194C12.5 416.79 15.0218 421.015 19.0668 423.196L250.499 548.002C252.299 548.973 254.334 549.5 256.432 549.5C258.352 549.5 260.22 549.058 261.903 548.239C262.059 548.163 262.213 548.084 262.365 548.002L493.797 423.196C497.842 421.015 500.364 416.79 500.364 412.194V149.832C500.364 149.823 500.364 149.814 500.364 149.806C500.364 149.339 500.338 148.872 500.285 148.408C500.238 147.986 500.169 147.567 500.079 147.151C499.806 145.895 499.338 144.675 498.677 143.536C498.175 142.669 497.576 141.876 496.898 141.167C496.357 140.601 495.766 140.089 495.133 139.637C494.775 139.381 494.403 139.144 494.02 138.927C493.939 138.882 493.858 138.837 493.777 138.793L262.365 13.9979C258.662 12.0007 254.202 12.0007 250.499 13.9979L19.0899 138.792C19.0019 138.839 18.9145 138.887 18.8277 138.936C16.89 140.036 15.3173 141.612 14.2245 143.471C14.2118 143.492 14.1992 143.514 14.1866 143.536C13.9354 143.969 13.712 144.414 13.5166 144.868C12.8671 146.378 12.527 147.99 12.5015 149.61Z" stroke="white" stroke-width="25" stroke-linejoin="round"/>
</svg>
