<svg width="463" height="512" viewBox="0 0 463 512" fill="none" xmlns="http://www.w3.org/2000/svg">
    <path d="M231.5 0L0 124.806V387.194L231.5 512L463 387.194V124.806L231.5 0Z" fill="#5943FE"/>
    <path d="M231.5 101.221L0 124.806L94.3694 337.075L231.5 101.221Z" fill="#5943FE"/>
    <path d="M0 124.806L231.5 101.221V0L0 124.806Z" fill="#382AA1"/>
    <path d="M231.5 101.221L463 124.806L231.5 0V101.221Z" fill="#261D6E"/>
    <path d="M0 124.806V387.194L94.3694 337.075L0 124.806Z" fill="#36289A"/>
    <path d="M0 387.194L231.5 512L94.3694 337.075L0 387.194Z" fill="#2B207B"/>
    <path d="M231.5 512L463 387.194L368.631 337.075L231.5 512Z" fill="#130E37"/>
    <path d="M463 387.194V124.806L368.631 337.075L463 387.194Z" fill="#211960"/>
    <path d="M368.631 337.075H231.5H94.3694L231.5 512L368.631 337.075Z" fill="#241B67"/>
    <path d="M231.5 337.075H368.631L231.5 101.221L94.3694 337.075H231.5Z" fill="#372A9F"/>
    <path d="M463 124.806L231.5 101.221L368.631 337.075L463 124.806Z" fill="#2D2281"/>
</svg>
