<svg width="463" height="512" viewBox="0 0 463 512" fill="none" xmlns="http://www.w3.org/2000/svg">
    <path d="M231.5 0L0 124.806V387.194L231.5 512L463 387.194V124.806L231.5 0Z" fill="#D3F901"/>
    <path d="M231.5 101.221L0 124.806L94.3694 337.075L231.5 101.221Z" fill="#D3F901"/>
    <path d="M0 124.806L231.5 101.221V0L0 124.806Z" fill="#A4C100"/>
    <path d="M231.5 101.221L463 124.806L231.5 0V101.221Z" fill="#869E00"/>
    <path d="M0 124.806V387.194L94.3694 337.075L0 124.806Z" fill="#A4C100"/>
    <path d="M0 387.194L231.5 512L94.3694 337.075L0 387.194Z" fill="#465200"/>
    <path d="M231.5 512L463 387.194L368.631 337.075L231.5 512Z" fill="#131600"/>
    <path d="M463 387.194V124.806L368.631 337.075L463 387.194Z" fill="#1D2300"/>
    <path d="M368.631 337.075H231.5H94.3694L231.5 512L368.631 337.075Z" fill="#262D00"/>
    <path d="M231.5 337.075H368.631L231.5 101.221L94.3694 337.075H231.5Z" fill="#819900"/>
    <path d="M463 124.806L231.5 101.221L368.631 337.075L463 124.806Z" fill="#536100"/>
</svg>
